<svg width="14" height="14" viewBox="0 0 14 14" fill="none" xmlns="http://www.w3.org/2000/svg">
<path fill-rule="evenodd" clip-rule="evenodd" d="M1.87379 13.5404C1.48326 13.9309 0.850097 13.9309 0.459573 13.5404C0.0690483 13.1499 0.0690483 12.5167 0.459573 12.1262L5.58656 6.99922L0.459573 1.87223C0.0690483 1.48171 0.0690483 0.848544 0.459573 0.45802C0.850097 0.0674953 1.48326 0.0674953 1.87379 0.45802L7.00077 5.58501L12.1278 0.45802C12.5183 0.0674953 13.1514 0.0674953 13.542 0.45802C13.9325 0.848544 13.9325 1.48171 13.542 1.87223L8.41499 6.99922L13.542 12.1262C13.9325 12.5167 13.9325 13.1499 13.542 13.5404C13.1514 13.9309 12.5183 13.9309 12.1278 13.5404L7.00077 8.41343L1.87379 13.5404Z" fill="#83828F"/>
</svg>
