<svg width="30" height="30" viewBox="0 0 30 30" fill="none" xmlns="http://www.w3.org/2000/svg">
<path fill-rule="evenodd" clip-rule="evenodd" d="M14.9998 2.66663C8.18832 2.66663 2.6665 8.18845 2.6665 15C2.6665 21.8115 8.18832 27.3333 14.9998 27.3333C21.8113 27.3333 27.3332 21.8115 27.3332 15C27.3332 14.4477 27.7809 14 28.3332 14C28.8855 14 29.3332 14.4477 29.3332 15C29.3332 22.916 22.9159 29.3333 14.9998 29.3333C7.08376 29.3333 0.666504 22.916 0.666504 15C0.666504 7.08388 7.08376 0.666626 14.9998 0.666626C15.5521 0.666626 15.9998 1.11434 15.9998 1.66663C15.9998 2.21891 15.5521 2.66663 14.9998 2.66663Z" fill="#FF00A8"/>
</svg>
