<svg width="130" height="26" viewBox="0 0 130 26" fill="none" xmlns="http://www.w3.org/2000/svg">
<path d="M4.83287 0.332483L11.1619 19.474H11.4113L17.7284 0.332483H22.5732L13.9999 24.6512H8.56142L0 0.332483H4.83287Z" fill="#FF00A8"/>
<path d="M32.6895 0.332483V24.6512H28.2842V0.332483H32.6895Z" fill="#FF00A8"/>
<path d="M53.1841 7.01776C53.0733 5.98073 52.6062 5.17327 51.7829 4.59538C50.9676 4.0175 49.9068 3.72855 48.6006 3.72855C47.6823 3.72855 46.8947 3.86709 46.2376 4.14416C45.5806 4.42123 45.0779 4.79725 44.7296 5.27222C44.3812 5.7472 44.2031 6.28946 44.1952 6.89901C44.1952 7.40565 44.31 7.84501 44.5396 8.21707C44.7771 8.58913 45.0977 8.90578 45.5014 9.16702C45.9051 9.42034 46.3524 9.63408 46.8432 9.80824C47.334 9.98239 47.8288 10.1288 48.3275 10.2476L50.6074 10.8176C51.5257 11.0313 52.4083 11.3202 53.2554 11.6844C54.1103 12.0485 54.8742 12.5077 55.5471 13.0618C56.2279 13.616 56.7662 14.2849 57.162 15.0686C57.5578 15.8523 57.7557 16.7706 57.7557 17.8234C57.7557 19.2484 57.3916 20.5031 56.6633 21.5876C55.935 22.6642 54.8822 23.5073 53.5047 24.1169C52.1352 24.7185 50.4768 25.0193 48.5294 25.0193C46.6374 25.0193 44.9948 24.7264 43.6015 24.1406C42.2162 23.5548 41.1316 22.6999 40.3479 21.5757C39.5721 20.4516 39.1526 19.0821 39.0892 17.4672H43.4234C43.4867 18.3142 43.7479 19.0188 44.2071 19.5808C44.6662 20.1429 45.2639 20.5625 46.0001 20.8395C46.7442 21.1166 47.5755 21.2551 48.4937 21.2551C49.4516 21.2551 50.2907 21.1126 51.0111 20.8277C51.7394 20.5348 52.3094 20.131 52.721 19.6165C53.1327 19.094 53.3424 18.4844 53.3504 17.7878C53.3424 17.1545 53.1564 16.632 52.7923 16.2204C52.4281 15.8008 51.9175 15.4525 51.2605 15.1755C50.6113 14.8905 49.8514 14.6371 48.9806 14.4155L46.2139 13.703C44.2111 13.1885 42.6278 12.4087 41.4641 11.3638C40.3083 10.3109 39.7305 8.9137 39.7305 7.17212C39.7305 5.73928 40.1183 4.48456 40.8941 3.40795C41.6778 2.33134 42.7426 1.49617 44.0883 0.902452C45.4341 0.300817 46.958 0 48.66 0C50.3857 0 51.8977 0.300817 53.196 0.902452C54.5022 1.49617 55.5273 2.32342 56.2715 3.3842C57.0156 4.43706 57.3995 5.64825 57.4233 7.01776H53.1841Z" fill="#FF00A8"/>
<path d="M68.5965 0.332483V24.6512H64.1911V0.332483H68.5965Z" fill="#FF00A8"/>
<path d="M74.8062 4.02541V0.332483H94.2089V4.02541H86.6924V24.6512H82.3226V4.02541H74.8062Z" fill="#FF00A8"/>
<path d="M100.457 24.6512V0.332483H104.863V11.5063H105.159L114.647 0.332483H120.026L110.622 11.245L120.109 24.6512H114.813L107.558 14.2255L104.863 17.4078V24.6512H100.457Z" fill="#FF00A8"/>
<path d="M130 0.332483V24.6512H125.595V0.332483H130Z" fill="#FF00A8"/>
</svg>
