<svg width="28" height="32" viewBox="0 0 28 32" fill="none" xmlns="http://www.w3.org/2000/svg">
<path d="M13 18C12.45 18 12 18.45 12 19V25C12 25.55 12.45 26 13 26C13.55 26 14 25.5522 14 25V19C14 18.45 13.55 18 13 18ZM17 18C16.45 18 16 18.45 16 19V25C16 25.5522 16.4476 26 16.9438 26C17.4399 26 18 25.55 18 25L17.9999 19C17.9438 18.45 17.55 18 17 18ZM23.5562 12.575C22.6975 11.505 21.3813 10.8594 19.9988 10.8594H19.1413C18.9092 10.8594 18.678 10.8776 18.4494 10.9134C17.6688 10.3188 16.7125 10 15.7125 10H14.9975V4.5C14.9975 2.01875 12.9781 0 10.4969 0C8.01562 0 5.99813 2.01875 5.99813 4.5V15.0312C5.30312 14.6938 4.69938 14.7125 4.36438 14.7125C1.5925 14.7125 0 17.0394 0 19.0781C0 20.015 0.301313 20.9225 0.874375 21.6838L5.75812 28.1963C7.54375 30.5813 10.3875 32 13.3562 32H20.2125C20.6068 32 21.0144 31.9402 21.3463 31.8347C23.1331 31.4943 24.7131 30.6216 25.9194 29.3072C27.2562 27.8938 28 26.0125 28 24.0125V17.1437C28 14.6625 26.0187 12.6438 23.5562 12.575ZM25 24.0125C25 25.2388 24.5488 26.3913 23.7225 27.2663C22.9394 28.12 21.9081 28.6831 20.6169 28.9263C20.4625 28.975 20.3312 29 20.2125 29H13.3562C11.3212 29 9.37813 28.0281 8.1575 26.4006L3.2725 19.8875C3.095 19.65 3.00125 19.3625 3.00125 19.075C3.00125 18.055 3.9075 17.7156 4.35875 17.7156C4.63713 17.7156 5.10938 17.8125 5.4425 18.2596L7.2 20.6033C7.39331 20.8599 7.69156 21.0045 8 21.0045C8.74625 21.0045 9.00062 20.3358 9.00062 20.0039V4.5C9.00062 3.67313 9.67438 3 10.4444 3C11.2706 3 11.9444 3.67313 11.9444 4.5V12.6687C11.9444 13.1024 12.2851 13.6694 12.9462 13.6694C13.7188 13.6688 13.7562 13 14.8562 13H15.7137C17.0575 13 16.8737 14.2006 17.8825 14.2006C18.3864 14.2006 18.4953 13.8577 19.1419 13.8577H19.9994C21.6844 13.8577 21.085 15.5721 22.5475 15.5721L23.4269 15.5718C24.2944 15.5718 24.9994 16.2768 24.9994 17.1431V24.0125H25ZM21 18C20.45 18 20 18.45 20 19V25C20 25.5522 20.4478 26 21 26C21.5522 26 22 25.5522 22 25V19C22 18.45 21.55 18 21 18Z" fill="#100C34"/>
</svg>
