<svg width="18" height="20" viewBox="0 0 18 20" fill="none" xmlns="http://www.w3.org/2000/svg">
<path d="M14.617 12.4959C15.0075 12.1054 15.6407 12.1054 16.0312 12.4959C16.4217 12.8864 16.4217 13.5196 16.0312 13.9101L12.8492 17.0921C10.1155 19.8258 5.68334 19.8258 2.94967 17.0921C0.215997 14.3584 0.215997 9.92632 2.94967 7.19261L8.60657 1.53575C10.5592 -0.416866 13.725 -0.416866 15.6776 1.53575C17.6302 3.48838 17.6302 6.6542 15.6776 8.60682L10.0208 14.2637C8.84917 15.4352 6.94967 15.4352 5.7781 14.2637C4.60653 13.0921 4.60653 11.1926 5.7781 10.021L10.3743 5.42484C10.7648 5.03432 11.398 5.03432 11.7885 5.42484C12.1791 5.81537 12.1791 6.44853 11.7885 6.83905L7.19231 11.4352C6.80179 11.8258 6.80179 12.4589 7.19231 12.8494C7.58284 13.24 8.21597 13.24 8.60657 12.8494L14.2634 7.19261C15.435 6.02104 15.435 4.12154 14.2634 2.94997C13.0918 1.77839 11.1923 1.77839 10.0208 2.94997L4.36389 8.60682C2.41126 10.5594 2.41126 13.7252 4.36389 15.6779C6.31651 17.6305 9.48237 17.6305 11.435 15.6779L14.617 12.4959Z" fill="#100C34"/>
</svg>
