<svg width="28" height="27" viewBox="0 0 28 27" fill="none" xmlns="http://www.w3.org/2000/svg">
<path d="M13.835 0C6.47186 0 0.5 6.12169 0.5 13.6721C0.5 19.7129 4.32048 24.8377 9.62003 26.6458C10.2857 26.7723 10.5013 26.3484 10.5013 25.9884V23.4431C6.7919 24.2703 6.01958 21.8298 6.01958 21.8298C5.41284 20.2495 4.53828 19.8291 4.53828 19.8291C3.32813 18.9803 4.63052 18.9985 4.63052 18.9985C5.96957 19.0942 6.67411 20.4079 6.67411 20.4079C7.86314 22.4975 9.79338 21.8936 10.5546 21.5438C10.6735 20.6608 11.0191 20.057 11.4014 19.7163C8.43988 19.3688 5.32616 18.1964 5.32616 12.9589C5.32616 11.4652 5.84733 10.2461 6.69966 9.28906C6.56187 8.94384 6.10514 7.5527 6.82968 5.67051C6.82968 5.67051 7.94982 5.30364 10.4979 7.0719C11.5614 6.76884 12.7015 6.6173 13.835 6.61161C14.9685 6.6173 16.1097 6.76884 17.1754 7.0719C19.7213 5.30364 20.8392 5.67051 20.8392 5.67051C21.5649 7.55384 21.1081 8.94498 20.9703 9.28906C21.826 10.2461 22.3427 11.4663 22.3427 12.9589C22.3427 18.2101 19.2234 19.3665 16.2542 19.7049C16.732 20.1288 17.1688 20.9605 17.1688 22.2366V25.9884C17.1688 26.3519 17.3821 26.7791 18.0589 26.6447C23.354 24.8343 27.17 19.7106 27.17 13.6721C27.17 6.12169 21.1993 0 13.835 0Z" fill="#100C34"/>
</svg>
