<svg width="28" height="28" viewBox="0 0 28 28" fill="none" xmlns="http://www.w3.org/2000/svg">
<path fill-rule="evenodd" clip-rule="evenodd" d="M27.3334 14.0001C27.3334 21.3639 21.3639 27.3334 14.0001 27.3334C6.63629 27.3334 0.666748 21.3639 0.666748 14.0001C0.666748 6.63629 6.63629 0.666748 14.0001 0.666748C21.3639 0.666748 27.3334 6.63629 27.3334 14.0001ZM14.4779 10.51C13.1811 11.0494 10.5891 12.1658 6.70221 13.8593C6.07103 14.1103 5.74039 14.3558 5.7103 14.5959C5.65943 15.0017 6.16757 15.1615 6.85953 15.3791C6.95365 15.4086 7.05117 15.4393 7.15115 15.4718C7.83193 15.6931 8.74769 15.952 9.22376 15.9623C9.6556 15.9716 10.1376 15.7936 10.6697 15.4282C14.3014 12.9767 16.1761 11.7376 16.2938 11.7109C16.3768 11.692 16.4919 11.6683 16.5698 11.7376C16.6478 11.8069 16.6401 11.9382 16.6319 11.9734C16.5816 12.188 14.5869 14.0424 13.5547 15.002C13.2329 15.3012 13.0046 15.5134 12.958 15.5618C12.8534 15.6704 12.7469 15.7731 12.6445 15.8718C12.0121 16.4815 11.5378 16.9387 12.6708 17.6853C13.2153 18.0441 13.6509 18.3408 14.0856 18.6368C14.5603 18.9601 15.0338 19.2825 15.6463 19.6841C15.8024 19.7864 15.9515 19.8927 16.0967 19.9962C16.6491 20.39 17.1454 20.7438 17.7585 20.6874C18.1148 20.6546 18.4828 20.3196 18.6697 19.3204C19.1115 16.9591 19.9797 11.8428 20.1804 9.73445C20.1979 9.54974 20.1758 9.31334 20.1581 9.20956C20.1403 9.10579 20.1032 8.95793 19.9683 8.84848C19.8085 8.71885 19.5619 8.69152 19.4516 8.69346C18.9501 8.7023 18.1807 8.96983 14.4779 10.51Z" fill="#100C34"/>
</svg>
