<svg width="18" height="20" viewBox="0 0 18 20" fill="none" xmlns="http://www.w3.org/2000/svg">
<path d="M14.617 12.4957C15.0075 12.1052 15.6407 12.1052 16.0312 12.4957C16.4217 12.8862 16.4217 13.5194 16.0312 13.9099L12.8492 17.0919C10.1155 19.8256 5.68334 19.8256 2.94967 17.0919C0.215997 14.3582 0.215997 9.92608 2.94967 7.19237L8.60657 1.53551C10.5592 -0.41711 13.725 -0.41711 15.6776 1.53551C17.6302 3.48814 17.6302 6.65396 15.6776 8.60658L10.0208 14.2635C8.84917 15.435 6.94967 15.435 5.7781 14.2635C4.60653 13.0919 4.60653 11.1924 5.7781 10.0208L10.3743 5.4246C10.7648 5.03408 11.398 5.03408 11.7885 5.4246C12.1791 5.81513 12.1791 6.44829 11.7885 6.83881L7.19231 11.435C6.80179 11.8256 6.80179 12.4587 7.19231 12.8492C7.58284 13.2398 8.21597 13.2398 8.60657 12.8492L14.2634 7.19237C15.435 6.0208 15.435 4.1213 14.2634 2.94973C13.0918 1.77815 11.1923 1.77815 10.0208 2.94973L4.36389 8.60658C2.41126 10.5592 2.41126 13.725 4.36389 15.6777C6.31651 17.6303 9.48237 17.6303 11.435 15.6777L14.617 12.4957Z" fill="#100C34"/>
</svg>
